<?xml version="1.0" encoding="UTF-8"?>
<svg xmlns="http://www.w3.org/2000/svg" width="110" height="111" viewBox="0 0 110 111" shape-rendering="crispEdges" role="img">
  <title>27-echoryn</title>
  <path id="palette-001" fill="#26272F" fill-opacity="0.2157" d="M40 99h15v1h-15zM56 99h8v1h-8zM65 99h12v1h-12zM28 100h61v1h-61zM22 101h73v1h-73zM19 102h79v1h-79zM17 103h83v1h-83zM17 104h83v1h-83zM19 105h79v1h-79zM22 106h73v1h-73zM28 107h61v1h-61zM40 108h37v1h-37z"/>
  <path id="palette-002" fill="#EFCE6C" fill-opacity="0.3137" d="M92 82h1v1h-1zM23 83h1v1h-1zM91 83h1v1h-1zM23 84h1v1h-1zM91 84h1v1h-1zM24 85h1v1h-1zM90 85h1v1h-1zM24 86h1v1h-1zM90 86h1v1h-1zM25 87h1v1h-1zM89 87h1v1h-1zM25 88h1v1h-1zM89 88h1v1h-1zM26 89h1v1h-1zM88 89h1v1h-1zM27 90h1v1h-1zM87 90h1v1h-1zM27 91h1v1h-1zM87 91h1v1h-1zM28 92h1v1h-1zM86 92h1v1h-1zM29 93h1v1h-1zM85 93h1v1h-1zM29 94h1v1h-1zM85 94h1v1h-1zM30 95h1v1h-1zM84 95h1v1h-1zM83 96h1v1h-1zM82 97h1v1h-1zM81 98h1v1h-1zM34 99h1v1h-1zM80 99h1v1h-1zM52 109h11v1h-11z"/>
  <path id="palette-003" fill="#EFCE6C" fill-opacity="0.3725" d="M51 6h5v1h-5zM58 6h6v1h-6zM46 7h5v1h-5zM64 7h5v1h-5zM43 8h3v1h-3zM69 8h2v1h-2zM40 9h3v1h-3zM72 9h3v1h-3zM38 10h2v1h-2zM75 10h2v1h-2zM36 11h2v1h-2zM77 11h2v1h-2zM34 12h2v1h-2zM79 12h2v1h-2zM32 13h2v1h-2zM81 13h2v1h-2zM31 14h1v1h-1zM83 14h1v1h-1zM29 15h2v1h-2zM84 15h2v1h-2zM28 16h1v1h-1zM86 16h1v1h-1zM27 17h1v1h-1zM87 17h1v1h-1zM26 18h1v1h-1zM88 18h1v1h-1zM25 19h1v1h-1zM24 20h1v1h-1zM90 20h1v1h-1zM23 21h1v1h-1zM91 21h1v1h-1zM22 22h1v1h-1zM92 22h1v1h-1zM21 23h1v1h-1zM93 23h1v1h-1zM20 24h1v1h-1zM94 24h1v1h-1zM20 25h1v1h-1zM94 25h1v1h-1zM19 26h1v1h-1zM95 26h1v1h-1zM18 27h1v1h-1zM96 27h1v1h-1zM17 28h1v1h-1zM17 29h1v1h-1zM16 30h1v1h-1zM16 31h1v1h-1zM15 32h1v1h-1zM15 33h1v1h-1z"/>
  <path id="palette-004" fill="#2B2D36" d="M75 19h2v1h-2zM76 20h6v1h-6zM73 21h1v1h-1zM81 21h5v1h-5zM72 22h3v1h-3zM84 22h3v1h-3zM88 22h4v1h-4zM70 23h3v1h-3zM82 23h1v1h-1zM87 23h2v1h-2zM90 23h3v1h-3zM69 24h3v1h-3zM82 24h1v1h-1zM86 24h1v1h-1zM88 24h1v1h-1zM91 24h2v1h-2zM68 25h3v1h-3zM81 25h1v1h-1zM85 25h3v1h-3zM89 25h1v1h-1zM91 25h3v1h-3zM68 26h2v1h-2zM81 26h1v1h-1zM85 26h3v1h-3zM89 26h1v1h-1zM92 26h2v1h-2zM69 27h2v1h-2zM81 27h1v1h-1zM85 27h3v1h-3zM89 27h3v1h-3zM93 27h2v1h-2zM69 28h2v1h-2zM82 28h1v1h-1zM86 28h1v1h-1zM88 28h1v1h-1zM92 28h6v1h-6zM70 29h2v1h-2zM82 29h2v1h-2zM87 29h3v1h-3zM98 29h7v1h-7zM70 30h2v1h-2zM84 30h3v1h-3zM89 30h1v1h-1zM105 30h4v1h-4zM71 31h2v1h-2zM90 31h1v1h-1zM104 31h3v1h-3zM71 32h2v1h-2zM90 32h1v1h-1zM101 32h3v1h-3zM71 33h2v1h-2zM91 33h1v1h-1zM97 33h4v1h-4zM72 34h2v1h-2zM91 34h1v1h-1zM94 34h3v1h-3zM42 35h1v1h-1zM72 35h2v1h-2zM90 35h4v1h-4zM43 36h1v1h-1zM73 36h2v1h-2zM89 36h3v1h-3zM43 37h1v1h-1zM73 37h2v1h-2zM89 37h2v1h-2zM44 38h1v1h-1zM74 38h2v1h-2zM88 38h3v1h-3zM44 39h1v1h-1zM74 39h16v1h-16zM44 40h1v1h-1zM58 40h1v1h-1zM87 40h2v1h-2zM26 41h1v1h-1zM45 41h1v1h-1zM59 41h1v1h-1zM26 42h1v1h-1zM30 42h1v1h-1zM45 42h1v1h-1zM59 42h1v1h-1zM27 43h10v1h-10zM46 43h1v1h-1zM59 43h1v1h-1zM28 44h1v1h-1zM46 44h4v1h-4zM59 44h1v1h-1zM29 45h1v1h-1zM46 45h1v1h-1zM49 45h3v1h-3zM60 45h1v1h-1zM21 46h2v1h-2zM29 46h1v1h-1zM47 46h1v1h-1zM51 46h3v1h-3zM60 46h1v1h-1zM19 47h3v1h-3zM30 47h1v1h-1zM36 47h3v1h-3zM47 47h1v1h-1zM60 47h1v1h-1zM17 48h3v1h-3zM31 48h1v1h-1zM39 48h6v1h-6zM48 48h1v1h-1zM61 48h1v1h-1zM14 49h4v1h-4zM31 49h1v1h-1zM45 49h4v1h-4zM61 49h1v1h-1zM2 50h2v1h-2zM14 50h2v1h-2zM30 50h3v1h-3zM61 50h1v1h-1zM2 51h1v1h-1zM4 51h3v1h-3zM13 51h2v1h-2zM24 51h6v1h-6zM52 51h2v1h-2zM61 51h1v1h-1zM2 52h1v1h-1zM7 52h2v1h-2zM13 52h2v1h-2zM21 52h3v1h-3zM54 52h2v1h-2zM2 53h1v1h-1zM8 53h1v1h-1zM12 53h2v1h-2zM56 53h2v1h-2zM62 53h1v1h-1zM64 53h1v1h-1zM2 54h1v1h-1zM8 54h1v1h-1zM12 54h2v1h-2zM62 54h1v1h-1zM1 55h1v1h-1zM8 55h1v1h-1zM11 55h2v1h-2zM59 55h2v1h-2zM62 55h1v1h-1zM1 56h1v1h-1zM7 56h1v1h-1zM11 56h2v1h-2zM61 56h2v1h-2zM1 57h1v1h-1zM7 57h1v1h-1zM10 57h2v1h-2zM1 58h1v1h-1zM7 58h1v1h-1zM10 58h2v1h-2zM68 58h1v1h-1zM1 59h4v1h-4zM7 59h1v1h-1zM9 59h2v1h-2zM68 59h2v1h-2zM5 60h3v1h-3zM10 60h1v1h-1zM68 60h3v1h-3zM69 61h2v1h-2zM69 62h3v1h-3zM64 63h2v1h-2zM70 63h2v1h-2zM9 64h1v1h-1zM61 64h3v1h-3zM65 64h1v1h-1zM70 64h3v1h-3zM9 65h2v1h-2zM58 65h3v1h-3zM64 65h1v1h-1zM69 65h3v1h-3zM9 66h2v1h-2zM24 66h13v1h-13zM55 66h3v1h-3zM64 66h1v1h-1zM69 66h2v1h-2zM9 67h2v1h-2zM15 67h9v1h-9zM37 67h9v1h-9zM52 67h3v1h-3zM64 67h1v1h-1zM68 67h3v1h-3zM10 68h2v1h-2zM15 68h1v1h-1zM46 68h6v1h-6zM63 68h1v1h-1zM67 68h3v1h-3zM10 69h2v1h-2zM15 69h1v1h-1zM63 69h1v1h-1zM66 69h3v1h-3zM10 70h2v1h-2zM15 70h1v1h-1zM63 70h1v1h-1zM66 70h2v1h-2zM10 71h2v1h-2zM14 71h1v1h-1zM63 71h1v1h-1zM65 71h2v1h-2zM11 72h2v1h-2zM14 72h1v1h-1zM62 72h1v1h-1zM64 72h3v1h-3zM11 73h4v1h-4zM64 73h2v1h-2zM14 74h2v1h-2zM64 74h1v1h-1zM16 75h3v1h-3zM18 76h3v1h-3zM56 76h5v1h-5zM23 77h2v1h-2zM46 77h6v1h-6zM54 77h2v1h-2zM60 77h1v1h-1zM23 78h5v1h-5zM37 78h14v1h-14zM54 78h6v1h-6zM25 79h9v1h-9zM37 79h7v1h-7zM27 80h1v1h-1z"/>
  <path id="palette-005" fill="#343B73" d="M89 28h3v1h-3zM90 29h8v1h-8zM90 30h15v1h-15zM91 31h13v1h-13zM91 32h10v1h-10zM92 33h5v1h-5zM92 34h2v1h-2zM64 64h1v1h-1zM61 65h3v1h-3zM58 66h6v1h-6zM24 67h13v1h-13zM55 67h9v1h-9zM16 68h30v1h-30zM52 68h11v1h-11zM16 69h47v1h-47zM16 70h47v1h-47zM15 71h48v1h-48zM15 72h47v1h-47zM15 73h6v1h-6zM24 73h11v1h-11zM38 73h14v1h-14zM55 73h6v1h-6zM16 74h5v1h-5zM24 74h11v1h-11zM38 74h14v1h-14zM55 74h6v1h-6zM19 75h2v1h-2zM24 75h11v1h-11zM38 75h14v1h-14zM55 75h6v1h-6zM24 76h11v1h-11zM38 76h14v1h-14zM55 76h1v1h-1zM25 77h10v1h-10zM37 77h9v1h-9zM28 78h6v1h-6zM18 97h1v1h-1zM32 97h1v1h-1zM49 97h1v1h-1zM58 97h1v1h-1zM18 98h7v1h-7zM32 98h7v1h-7zM49 98h7v1h-7zM58 98h7v1h-7zM24 99h1v1h-1zM38 99h1v1h-1zM55 99h1v1h-1zM64 99h1v1h-1z"/>
  <path id="palette-006" fill="#9DE7ED" d="M101 42h1v1h-1zM101 43h1v1h-1zM100 44h3v1h-3zM100 45h3v1h-3zM97 46h9v1h-9zM100 47h3v1h-3zM100 48h3v1h-3zM101 49h1v1h-1zM101 50h1v1h-1zM3 51h1v1h-1zM3 52h4v1h-4zM3 53h5v1h-5zM3 54h5v1h-5zM2 55h6v1h-6zM2 56h5v1h-5zM2 57h5v1h-5zM2 58h5v1h-5zM5 59h2v1h-2z"/>
  <path id="palette-007" fill="#B7BEDA" d="M42 36h1v1h-1zM41 37h2v1h-2zM41 38h3v1h-3zM40 39h4v1h-4zM40 40h4v1h-4zM39 41h6v1h-6zM58 41h1v1h-1zM25 42h1v1h-1zM39 42h6v1h-6zM57 42h2v1h-2zM25 43h2v1h-2zM38 43h8v1h-8zM56 43h3v1h-3zM24 44h4v1h-4zM38 44h8v1h-8zM56 44h3v1h-3zM24 45h5v1h-5zM37 45h9v1h-9zM55 45h5v1h-5zM24 46h5v1h-5zM37 46h10v1h-10zM55 46h5v1h-5zM23 47h7v1h-7zM39 47h8v1h-8zM54 47h6v1h-6zM23 48h8v1h-8zM45 48h3v1h-3zM53 48h8v1h-8zM22 49h9v1h-9zM53 49h8v1h-8zM22 50h8v1h-8zM52 50h9v1h-9zM21 51h3v1h-3zM54 51h7v1h-7zM56 52h5v1h-5zM58 53h1v1h-1zM61 53h1v1h-1zM59 54h3v1h-3zM61 55h1v1h-1z"/>
  <path id="palette-008" fill="#E4DDCA" d="M77 21h4v1h-4zM76 22h8v1h-8zM73 23h9v1h-9zM89 23h1v1h-1zM72 24h10v1h-10zM89 24h2v1h-2zM71 25h10v1h-10zM90 25h1v1h-1zM70 26h11v1h-11zM90 26h2v1h-2zM71 27h10v1h-10zM92 27h1v1h-1zM71 28h11v1h-11zM72 29h10v1h-10zM72 30h12v1h-12zM87 30h2v1h-2zM73 31h17v1h-17zM73 32h17v1h-17zM73 33h18v1h-18zM74 34h17v1h-17zM74 35h16v1h-16zM75 36h14v1h-14zM75 37h14v1h-14zM73 38h1v1h-1zM76 38h12v1h-12zM73 39h1v1h-1zM72 40h7v1h-7zM72 41h7v1h-7zM73 42h5v1h-5zM71 43h2v1h-2zM75 43h3v1h-3zM29 44h8v1h-8zM71 44h4v1h-4zM76 44h2v1h-2zM30 45h6v1h-6zM47 45h2v1h-2zM70 45h5v1h-5zM76 45h1v1h-1zM30 46h6v1h-6zM48 46h3v1h-3zM70 46h5v1h-5zM76 46h1v1h-1zM31 47h4v1h-4zM48 47h5v1h-5zM70 47h3v1h-3zM75 47h1v1h-1zM20 48h2v1h-2zM32 48h7v1h-7zM49 48h3v1h-3zM73 48h3v1h-3zM18 49h3v1h-3zM32 49h13v1h-13zM49 49h3v1h-3zM69 49h3v1h-3zM73 49h3v1h-3zM16 50h5v1h-5zM33 50h18v1h-18zM69 50h3v1h-3zM73 50h2v1h-2zM15 51h5v1h-5zM30 51h22v1h-22zM68 51h4v1h-4zM73 51h2v1h-2zM15 52h5v1h-5zM24 52h30v1h-30zM67 52h3v1h-3zM72 52h2v1h-2zM14 53h12v1h-12zM27 53h29v1h-29zM63 53h1v1h-1zM70 53h3v1h-3zM14 54h11v1h-11zM26 54h1v1h-1zM28 54h30v1h-30zM63 54h5v1h-5zM69 54h3v1h-3zM13 55h12v1h-12zM26 55h2v1h-2zM29 55h29v1h-29zM63 55h5v1h-5zM69 55h2v1h-2zM13 56h11v1h-11zM25 56h4v1h-4zM30 56h11v1h-11zM42 56h16v1h-16zM59 56h2v1h-2zM63 56h5v1h-5zM69 56h1v1h-1zM12 57h13v1h-13zM26 57h2v1h-2zM29 57h11v1h-11zM41 57h1v1h-1zM43 57h16v1h-16zM61 57h5v1h-5zM68 57h1v1h-1zM12 58h13v1h-13zM26 58h1v1h-1zM28 58h12v1h-12zM41 58h2v1h-2zM44 58h10v1h-10zM55 58h6v1h-6zM66 58h2v1h-2zM11 59h15v1h-15zM27 59h12v1h-12zM40 59h4v1h-4zM45 59h8v1h-8zM54 59h1v1h-1zM56 59h12v1h-12zM11 60h29v1h-29zM41 60h2v1h-2zM44 60h9v1h-9zM54 60h2v1h-2zM57 60h11v1h-11zM11 61h29v1h-29zM41 61h1v1h-1zM43 61h9v1h-9zM53 61h4v1h-4zM58 61h11v1h-11zM13 62h28v1h-28zM42 62h11v1h-11zM54 62h2v1h-2zM57 62h12v1h-12zM14 63h39v1h-39zM54 63h1v1h-1zM56 63h8v1h-8zM66 63h4v1h-4zM16 64h38v1h-38zM55 64h6v1h-6zM66 64h4v1h-4zM15 65h43v1h-43zM65 65h4v1h-4zM11 66h2v1h-2zM14 66h10v1h-10zM37 66h18v1h-18zM65 66h4v1h-4zM11 67h4v1h-4zM46 67h6v1h-6zM65 67h3v1h-3zM12 68h3v1h-3zM64 68h3v1h-3zM12 69h3v1h-3zM64 69h2v1h-2zM12 70h3v1h-3zM64 70h2v1h-2zM12 71h2v1h-2zM64 71h1v1h-1zM13 72h1v1h-1zM63 72h1v1h-1zM21 73h3v1h-3zM35 73h3v1h-3zM52 73h3v1h-3zM61 73h3v1h-3zM21 74h3v1h-3zM35 74h3v1h-3zM52 74h3v1h-3zM61 74h3v1h-3zM21 75h3v1h-3zM35 75h3v1h-3zM52 75h3v1h-3zM61 75h3v1h-3zM21 76h3v1h-3zM35 76h3v1h-3zM52 76h3v1h-3zM61 76h3v1h-3zM21 77h2v1h-2zM35 77h2v1h-2zM52 77h2v1h-2zM56 77h4v1h-4zM61 77h2v1h-2zM20 78h3v1h-3zM34 78h3v1h-3zM51 78h3v1h-3zM60 78h3v1h-3zM20 79h3v1h-3zM34 79h3v1h-3zM51 79h3v1h-3zM60 79h3v1h-3zM20 80h3v1h-3zM34 80h3v1h-3zM51 80h3v1h-3zM60 80h3v1h-3zM20 81h3v1h-3zM34 81h3v1h-3zM51 81h3v1h-3zM60 81h3v1h-3zM20 82h3v1h-3zM34 82h3v1h-3zM51 82h3v1h-3zM60 82h3v1h-3zM20 83h3v1h-3zM34 83h3v1h-3zM51 83h3v1h-3zM60 83h3v1h-3zM20 84h3v1h-3zM34 84h3v1h-3zM51 84h3v1h-3zM60 84h3v1h-3zM20 85h2v1h-2zM34 85h2v1h-2zM51 85h2v1h-2zM60 85h2v1h-2zM19 86h3v1h-3zM33 86h3v1h-3zM50 86h3v1h-3zM59 86h3v1h-3zM19 87h3v1h-3zM33 87h3v1h-3zM50 87h3v1h-3zM59 87h3v1h-3zM19 88h3v1h-3zM33 88h3v1h-3zM50 88h3v1h-3zM59 88h3v1h-3zM19 89h3v1h-3zM33 89h3v1h-3zM50 89h3v1h-3zM59 89h3v1h-3zM19 90h3v1h-3zM33 90h3v1h-3zM50 90h3v1h-3zM59 90h3v1h-3zM19 91h2v1h-2zM33 91h2v1h-2zM50 91h2v1h-2zM59 91h2v1h-2zM18 92h3v1h-3zM32 92h3v1h-3zM49 92h3v1h-3zM58 92h3v1h-3zM18 93h3v1h-3zM32 93h3v1h-3zM49 93h3v1h-3zM58 93h3v1h-3zM18 94h3v1h-3zM32 94h3v1h-3zM49 94h3v1h-3zM58 94h3v1h-3zM18 95h2v1h-2zM32 95h2v1h-2zM49 95h2v1h-2zM58 95h2v1h-2zM17 96h3v1h-3zM31 96h3v1h-3zM48 96h3v1h-3zM57 96h3v1h-3zM17 97h1v1h-1zM19 97h1v1h-1zM31 97h1v1h-1zM33 97h1v1h-1zM48 97h1v1h-1zM50 97h1v1h-1zM57 97h1v1h-1zM59 97h1v1h-1z"/>
  <path id="palette-009" fill="#EFCE6C" d="M51 1h1v1h-1zM68 1h2v1h-2zM51 2h3v1h-3zM69 2h1v1h-1zM95 2h1v1h-1zM53 3h3v1h-3zM69 3h2v1h-2zM94 3h3v1h-3zM55 4h3v1h-3zM70 4h1v1h-1zM93 4h3v1h-3zM106 4h2v1h-2zM56 5h2v1h-2zM70 5h2v1h-2zM93 5h2v1h-2zM105 5h2v1h-2zM56 6h2v1h-2zM71 6h1v1h-1zM92 6h3v1h-3zM105 6h2v1h-2zM57 7h2v1h-2zM71 7h2v1h-2zM91 7h3v1h-3zM104 7h2v1h-2zM57 8h2v1h-2zM71 8h2v1h-2zM91 8h2v1h-2zM104 8h2v1h-2zM58 9h2v1h-2zM70 9h2v1h-2zM92 9h1v1h-1zM103 9h2v1h-2zM58 10h2v1h-2zM70 10h2v1h-2zM92 10h2v1h-2zM103 10h2v1h-2zM59 11h2v1h-2zM70 11h1v1h-1zM92 11h2v1h-2zM102 11h2v1h-2zM59 12h2v1h-2zM69 12h2v1h-2zM92 12h2v1h-2zM102 12h2v1h-2zM60 13h11v1h-11zM93 13h1v1h-1zM101 13h2v1h-2zM60 14h11v1h-11zM93 14h10v1h-10zM68 15h4v1h-4zM92 15h3v1h-3zM70 16h3v1h-3zM91 16h3v1h-3zM71 17h2v1h-2zM90 17h3v1h-3zM72 18h2v1h-2zM89 18h3v1h-3zM72 19h3v1h-3zM88 19h3v1h-3zM73 20h3v1h-3zM87 20h3v1h-3zM74 21h3v1h-3zM86 21h3v1h-3zM75 22h1v1h-1zM87 22h1v1h-1zM85 23h2v1h-2zM85 24h1v1h-1zM87 24h1v1h-1zM83 25h2v1h-2zM88 25h1v1h-1zM83 26h2v1h-2zM88 26h1v1h-1zM83 27h2v1h-2zM88 27h1v1h-1zM84 28h2v1h-2zM87 28h1v1h-1zM85 29h2v1h-2zM23 31h1v1h-1zM22 32h3v1h-3zM21 33h5v1h-5zM22 34h3v1h-3zM23 35h1v1h-1zM68 42h5v1h-5zM66 43h2v1h-2zM73 43h2v1h-2zM65 44h1v1h-1zM75 44h1v1h-1zM65 45h1v1h-1zM75 45h1v1h-1zM65 46h1v1h-1zM75 46h1v1h-1zM65 47h5v1h-5zM73 47h2v1h-2zM63 48h2v1h-2zM68 48h5v1h-5zM62 49h1v1h-1zM72 49h1v1h-1zM62 50h1v1h-1zM72 50h1v1h-1zM62 51h1v1h-1zM72 51h1v1h-1zM61 52h5v1h-5zM70 52h2v1h-2zM59 53h2v1h-2zM65 53h5v1h-5zM58 54h1v1h-1zM68 54h1v1h-1zM58 55h1v1h-1zM68 55h1v1h-1zM58 56h1v1h-1zM68 56h1v1h-1zM59 57h2v1h-2zM66 57h2v1h-2zM61 58h5v1h-5zM8 60h2v1h-2zM5 61h6v1h-6zM7 62h6v1h-6zM8 63h6v1h-6zM10 64h6v1h-6zM11 65h4v1h-4zM13 66h1v1h-1z"/>
  <path id="palette-010" fill="#FFF4D6" d="M42 34h1v1h-1zM41 35h1v1h-1zM41 36h1v1h-1zM40 37h1v1h-1zM40 38h1v1h-1zM39 39h1v1h-1zM58 39h1v1h-1zM25 40h1v1h-1zM39 40h1v1h-1zM57 40h1v1h-1zM25 41h1v1h-1zM38 41h1v1h-1zM57 41h1v1h-1zM24 42h1v1h-1zM38 42h1v1h-1zM56 42h1v1h-1zM24 43h1v1h-1zM37 43h1v1h-1zM55 43h1v1h-1zM23 44h1v1h-1zM37 44h1v1h-1zM55 44h1v1h-1zM23 45h1v1h-1zM36 45h1v1h-1zM54 45h1v1h-1zM23 46h1v1h-1zM36 46h1v1h-1zM54 46h1v1h-1zM22 47h1v1h-1zM35 47h1v1h-1zM53 47h1v1h-1zM22 48h1v1h-1zM52 48h1v1h-1zM21 49h1v1h-1zM52 49h1v1h-1zM21 50h1v1h-1zM51 50h1v1h-1zM20 51h1v1h-1zM20 52h1v1h-1z"/>
  <path id="palette-011" fill="#FFF8DE" d="M26 53h1v1h-1zM25 54h1v1h-1zM27 54h1v1h-1zM25 55h1v1h-1zM28 55h1v1h-1zM24 56h1v1h-1zM29 56h1v1h-1zM41 56h1v1h-1zM25 57h1v1h-1zM28 57h1v1h-1zM40 57h1v1h-1zM42 57h1v1h-1zM25 58h1v1h-1zM27 58h1v1h-1zM40 58h1v1h-1zM43 58h1v1h-1zM54 58h1v1h-1zM26 59h1v1h-1zM39 59h1v1h-1zM44 59h1v1h-1zM53 59h1v1h-1zM55 59h1v1h-1zM40 60h1v1h-1zM43 60h1v1h-1zM53 60h1v1h-1zM56 60h1v1h-1zM40 61h1v1h-1zM42 61h1v1h-1zM52 61h1v1h-1zM57 61h1v1h-1zM41 62h1v1h-1zM53 62h1v1h-1zM56 62h1v1h-1zM53 63h1v1h-1zM55 63h1v1h-1zM54 64h1v1h-1z"/>
  <path id="palette-012" fill="#FFF9E6" d="M83 23h2v1h-2zM83 24h2v1h-2zM82 25h1v1h-1zM82 26h1v1h-1zM82 27h1v1h-1zM83 28h1v1h-1zM84 29h1v1h-1z"/>
</svg>
